HIERARCHY
ROOT Hips
{
	OFFSET 0.000000 0.000000 0.000000
	CHANNELS 6 Xposition Yposition Zposition Yrotation Xrotation Zrotation
	JOINT Chest
	{
		OFFSET 0.000000 -0.009282 11.569106
		CHANNELS 6 Xposition Yposition Zposition Yrotation Xrotation Zrotation
		JOINT Chest2
		{
			OFFSET -0.000000 0.016863 9.269641
			CHANNELS 6 Xposition Yposition Zposition Yrotation Xrotation Zrotation
			JOINT Chest3
			{
				OFFSET -0.000000 0.000000 8.374491
				CHANNELS 6 Xposition Yposition Zposition Yrotation Xrotation Zrotation
				JOINT Chest4
				{
					OFFSET -0.000000 0.000000 8.374493
					CHANNELS 6 Xposition Yposition Zposition Yrotation Xrotation Zrotation
					JOINT Neck
					{
						OFFSET -0.000000 0.000001 12.152554
						CHANNELS 6 Xposition Yposition Zposition Yrotation Xrotation Zrotation
						JOINT Head
						{
							OFFSET -0.000000 0.040100 7.802319
							CHANNELS 6 Xposition Yposition Zposition Yrotation Xrotation Zrotation
							End Site
							{
								OFFSET -0.000000 0.020946 14.853096
							}
						}
					}
					JOINT RightCollar
					{
						OFFSET 2.894404 0.000001 6.791374
						CHANNELS 6 Xposition Yposition Zposition Yrotation Xrotation Zrotation
						JOINT RightShoulder
						{
							OFFSET 13.574684 0.000001 0.000000
							CHANNELS 6 Xposition Yposition Zposition Yrotation Xrotation Zrotation
							JOINT RightElbow
							{
								OFFSET 23.923903 0.000002 0.000000
								CHANNELS 6 Xposition Yposition Zposition Yrotation Xrotation Zrotation
								JOINT RightWrist
								{
									OFFSET 19.846718 0.012767 0.000000
									CHANNELS 6 Xposition Yposition Zposition Yrotation Xrotation Zrotation
									End Site
									{
										OFFSET 14.973145 0.000001 0.000000
									}
								}
							}
						}
					}
					JOINT LeftCollar
					{
						OFFSET -2.894404 0.000000 6.791374
						CHANNELS 6 Xposition Yposition Zposition Yrotation Xrotation Zrotation
						JOINT LeftShoulder
						{
							OFFSET -13.574684 -0.000001 0.000000
							CHANNELS 6 Xposition Yposition Zposition Yrotation Xrotation Zrotation
							JOINT LeftElbow
							{
								OFFSET -23.923903 -0.000002 0.000000
								CHANNELS 6 Xposition Yposition Zposition Yrotation Xrotation Zrotation
								JOINT LeftWrist
								{
									OFFSET -19.846718 0.012763 0.000000
									CHANNELS 6 Xposition Yposition Zposition Yrotation Xrotation Zrotation
									End Site
									{
										OFFSET -14.973145 -0.000001 0.000000
									}
								}
							}
						}
					}
				}
			}
		}
	}
	JOINT RightHip
	{
		OFFSET 9.469263 0.004643 0.045487
		CHANNELS 6 Xposition Yposition Zposition Yrotation Xrotation Zrotation
		JOINT RightKnee
		{
			OFFSET 0.000000 0.002666 -40.478676
			CHANNELS 6 Xposition Yposition Zposition Yrotation Xrotation Zrotation
			JOINT RightAnkle
			{
				OFFSET 0.000000 0.049110 -35.224068
				CHANNELS 6 Xposition Yposition Zposition Yrotation Xrotation Zrotation
				JOINT RightToe
				{
					OFFSET -0.000001 12.539530 -6.151390
					CHANNELS 6 Xposition Yposition Zposition Yrotation Xrotation Zrotation
					End Site
					{
						OFFSET -0.000001 5.044996 -1.291870
					}
				}
			}
		}
	}
	JOINT LeftHip
	{
		OFFSET -9.469263 0.004641 0.045487
		CHANNELS 6 Xposition Yposition Zposition Yrotation Xrotation Zrotation
		JOINT LeftKnee
		{
			OFFSET 0.000000 0.002666 -40.478676
			CHANNELS 6 Xposition Yposition Zposition Yrotation Xrotation Zrotation
			JOINT LeftAnkle
			{
				OFFSET 0.000000 0.049110 -35.224068
				CHANNELS 6 Xposition Yposition Zposition Yrotation Xrotation Zrotation
				JOINT LeftToe
				{
					OFFSET -0.000001 12.539530 -6.151390
					CHANNELS 6 Xposition Yposition Zposition Yrotation Xrotation Zrotation
					End Site
					{
						OFFSET -0.000001 5.044996 -1.291870
					}
				}
			}
		}
	}
}
MOTION
Frames: 6
Frame Time: 0.016667
9.624051 6.768845 83.228470 -2.914590 -2.003834 -113.329395 0.000000 -0.009282 11.569121 -0.808692 -9.770799 0.396878 0.000000 0.016864 9.269649 -0.351713 -4.342119 0.137314 0.000001 0.000000 8.374491 -0.351713 -4.342120 0.137311 0.000001 0.000002 8.374489 -0.262681 -3.256673 0.100430 0.000000 0.000005 12.152546 1.163773 -25.951259 -0.518020 0.000004 0.040096 7.802319 1.959346 -12.008722 -0.658299 2.894404 -0.000001 6.791369 6.379382 -4.248638 0.839623 13.574687 0.000005 0.000005 62.606859 -7.053903 35.900021 23.923901 0.000005 0.000001 1.721762 -40.537538 90.980312 19.846716 0.012757 0.000001 -36.879801 39.517586 46.656872 -2.894405 -0.000002 6.791371 -10.835579 -4.074242 -4.465040 -13.574686 0.000000 0.000005 -44.377771 -2.207332 -40.733315 -23.923899 0.000003 0.000001 -23.186049 -49.922911 -71.568115 -19.846704 0.012755 0.000001 46.522102 29.587683 -49.674931 9.469263 0.004644 0.045495 0.150887 -5.461191 -0.358329 0.000022 0.002666 -40.478722 -0.018746 -1.021912 -0.469023 0.000011 0.049105 -35.223930 1.689073 3.088338 -0.143930 -0.000000 12.539528 -6.151389 -0.085595 -0.031451 -0.007183 -9.469262 0.004642 0.045495 0.271230 -6.030549 1.827808 -0.000059 0.002666 -40.478642 0.111357 0.581983 1.278114 0.000043 0.049110 -35.223980 -0.691426 1.842853 -0.921177 0.000001 12.539531 -6.151398 -0.009512 -0.023983 0.009782 
9.594729 6.759090 83.227478 -2.887469 -1.980154 -113.333083 0.000001 -0.009283 11.569107 -0.818670 -9.821304 0.394685 -0.000001 0.016865 9.269642 -0.357089 -4.365086 0.135602 -0.000001 0.000003 8.374494 -0.357089 -4.365086 0.135605 0.000000 0.000001 8.374472 -0.266717 -3.273896 0.099098 -0.000000 -0.000001 12.152558 1.163951 -26.012697 -0.520382 -0.000002 0.040087 7.802310 1.959206 -12.122783 -0.663231 2.894403 0.000003 6.791374 6.389466 -4.221437 0.847165 13.574688 0.000002 0.000007 62.645477 -7.288753 35.122496 23.923912 0.000003 -0.000004 2.631493 -41.012550 89.897188 19.846718 0.012758 0.000001 -37.106847 39.512067 46.471968 -2.894405 0.000001 6.791373 -10.880386 -4.003397 -4.442777 -13.574682 0.000004 0.000000 -44.324724 -2.644195 -39.979884 -23.923893 0.000003 0.000002 -24.077882 -50.033154 -70.360224 -19.846710 0.012765 -0.000006 46.552998 30.102956 -49.583717 9.469263 0.004641 0.045483 0.157562 -5.408641 -0.311783 0.000023 0.002666 -40.478725 -0.025360 -1.022313 -0.499543 0.000012 0.049103 -35.223919 1.690581 3.077267 -0.157871 -0.000000 12.539526 -6.151393 -0.079534 -0.031744 -0.006508 -9.469262 0.004641 0.045481 0.276301 -5.981366 1.823790 -0.000060 0.002665 -40.478661 0.110855 0.584238 1.279013 0.000042 0.049108 -35.223995 -0.700271 1.824559 -0.929156 0.000001 12.539533 -6.151403 -0.011325 -0.024863 0.009690 
9.566670 6.748326 83.226028 -2.866257 -1.958674 -113.335952 0.000000 -0.009282 11.569107 -0.830282 -9.867098 0.398297 -0.000001 0.016864 9.269650 -0.362268 -4.385819 0.136430 -0.000000 0.000002 8.374495 -0.362268 -4.385821 0.136432 0.000000 0.000003 8.374481 -0.270587 -3.289449 0.099668 0.000000 0.000006 12.152541 1.171749 -26.056992 -0.530873 -0.000001 0.040119 7.802315 1.970798 -12.204956 -0.680731 2.894405 0.000001 6.791360 6.398051 -4.178555 0.854068 13.574684 0.000012 0.000001 62.727720 -7.473268 34.348495 23.923906 0.000010 -0.000002 3.578330 -41.528554 88.750966 19.846714 0.012744 -0.000001 -37.425745 39.587899 46.265844 -2.894405 0.000003 6.791363 -10.936354 -3.886667 -4.457884 -13.574678 0.000002 0.000004 -44.329482 -3.061152 -39.204770 -23.923887 0.000007 -0.000001 -24.889602 -50.124723 -69.151007 -19.846716 0.012752 -0.000010 46.492066 30.612734 -49.417467 9.469264 0.004644 0.045484 0.159962 -5.359902 -0.277263 0.000024 0.002666 -40.478725 -0.022781 -1.030698 -0.513509 0.000012 0.049106 -35.223927 1.685369 3.071954 -0.177916 -0.000000 12.539528 -6.151394 -0.073750 -0.032286 -0.006051 -9.469263 0.004642 0.045487 0.280875 -5.936273 1.816949 -0.000057 0.002666 -40.478649 0.108651 0.580396 1.268623 0.000043 0.049108 -35.223988 -0.706306 1.811044 -0.913412 -0.000001 12.539533 -6.151395 -0.013240 -0.026166 0.008668 
9.542690 6.738447 83.224777 -2.848042 -1.937522 -113.335972 0.000000 -0.009283 11.569104 -0.838876 -9.903185 0.392099 -0.000000 0.016863 9.269650 -0.365825 -4.401892 0.133143 -0.000001 0.000001 8.374485 -0.365825 -4.401893 0.133143 0.000000 0.000005 8.374495 -0.273272 -3.301501 0.097169 0.000000 0.000001 12.152545 1.168796 -26.087945 -0.535815 0.000001 0.040102 7.802318 1.964447 -12.262373 -0.690617 2.894404 -0.000003 6.791377 6.401731 -4.126303 0.867327 13.574683 0.000003 0.000009 62.823035 -7.648031 33.608041 23.923897 0.000009 -0.000013 4.671186 -42.074334 87.463421 19.846716 0.012751 -0.000005 -37.759574 39.630089 46.008185 -2.894404 -0.000001 6.791372 -10.992843 -3.742922 -4.476609 -13.574683 -0.000003 -0.000004 -44.402254 -3.457810 -38.401079 -23.923899 -0.000004 0.000000 -25.753604 -50.215834 -67.866392 -19.846716 0.012754 -0.000004 46.451959 31.197432 -49.190008 9.469262 0.004642 0.045487 0.156388 -5.319083 -0.284170 0.000022 0.002666 -40.478725 -0.013386 -1.034835 -0.504472 0.000013 0.049105 -35.223927 1.677907 3.067616 -0.182538 0.000001 12.539529 -6.151388 -0.068417 -0.033387 -0.006595 -9.469261 0.004639 0.045484 0.280548 -5.899015 1.813955 -0.000057 0.002665 -40.478645 0.112564 0.582019 1.259396 0.000041 0.049108 -35.223995 -0.714165 1.795560 -0.902293 -0.000000 12.539531 -6.151392 -0.015235 -0.026037 0.007568 
9.525353 6.726197 83.223778 -2.836039 -1.918716 -113.334483 -0.000001 -0.009281 11.569092 -0.846408 -9.924927 0.384206 -0.000000 0.016863 9.269636 -0.369483 -4.411022 0.129194 -0.000001 0.000002 8.374485 -0.369482 -4.411024 0.129195 0.000002 0.000001 8.374486 -0.276041 -3.308347 0.094173 -0.000000 0.000005 12.152546 1.160818 -26.111670 -0.539003 -0.000005 0.040077 7.802316 1.949527 -12.306364 -0.698415 2.894404 -0.000001 6.791375 6.414557 -4.081479 0.873148 13.574690 0.000003 -0.000016 62.883653 -7.852797 32.897008 23.923901 0.000009 -0.000008 5.975429 -42.581810 86.030720 19.846718 0.012757 0.000001 -37.997131 39.560312 45.669435 -2.894403 0.000004 6.791371 -11.039149 -3.655863 -4.500991 -13.574682 0.000001 -0.000006 -44.491770 -3.821061 -37.604634 -23.923895 0.000007 -0.000003 -26.866296 -50.309650 -66.399520 -19.846712 0.012764 0.000003 46.527740 31.876175 -48.960401 9.469263 0.004644 0.045481 0.154186 -5.293070 -0.313616 0.000023 0.002666 -40.478722 -0.008789 -1.033185 -0.486177 0.000012 0.049104 -35.223923 1.674065 3.063546 -0.173606 -0.000001 12.539526 -6.151392 -0.064214 -0.032917 -0.006858 -9.469263 0.004642 0.045478 0.279626 -5.874935 1.820787 -0.000057 0.002666 -40.478638 0.115238 0.587651 1.254973 0.000042 0.049111 -35.223988 -0.721286 1.780726 -0.902726 -0.000002 12.539533 -6.151400 -0.016752 -0.024482 0.007856 
9.515061 6.709794 83.222931 -2.831421 -1.901424 -113.329777 0.000001 -0.009282 11.569105 -0.853138 -9.938579 0.377045 0.000001 0.016862 9.269637 -0.373128 -4.416508 0.126174 0.000001 0.000001 8.374491 -0.373128 -4.416507 0.126174 0.000000 0.000001 8.374494 -0.278793 -3.312461 0.091881 0.000001 -0.000003 12.152560 1.156212 -26.119156 -0.544044 -0.000002 0.040096 7.802316 1.940176 -12.320189 -0.708549 2.894405 -0.000000 6.791379 6.432960 -4.041402 0.882250 13.574682 0.000001 0.000005 62.882260 -8.056618 32.205466 23.923897 0.000010 -0.000001 7.550693 -43.046369 84.425564 19.846718 0.012778 0.000005 -38.160369 39.397310 45.291377 -2.894402 -0.000003 6.791377 -11.079022 -3.625914 -4.515503 -13.574681 0.000005 -0.000002 -44.559707 -4.157545 -36.890343 -23.923897 -0.000003 -0.000001 -28.215867 -50.374216 -64.760227 -19.846706 0.012760 -0.000004 46.730023 32.582127 -48.646264 9.469264 0.004642 0.045481 0.156748 -5.284548 -0.341365 0.000022 0.002665 -40.478725 -0.013456 -1.023904 -0.474322 0.000012 0.049105 -35.223930 1.672382 3.062028 -0.166686 0.000000 12.539529 -6.151393 -0.059689 -0.032577 -0.006047 -9.469263 0.004641 0.045480 0.280463 -5.864247 1.830108 -0.000057 0.002665 -40.478642 0.114771 0.593606 1.249890 0.000043 0.049110 -35.223991 -0.729143 1.770012 -0.909737 -0.000000 12.539532 -6.151401 -0.017648 -0.021868 0.007813 
